<svg width="13" height="18" fill="none" xmlns="http://www.w3.org/2000/svg"><path d="M11.559 3.089A6.128 6.128 0 006.199 0a6.128 6.128 0 00-5.36 3.089 6.104 6.104 0 000 6.177l4.9 8.469a.532.532 0 00.92 0l4.9-8.47a6.104 6.104 0 000-6.176zm-.922 5.645L6.2 16.407 1.761 8.734a5.054 5.054 0 010-5.114 5.075 5.075 0 014.438-2.558c1.853 0 3.512.956 4.438 2.558a5.054 5.054 0 010 5.114z" fill="#2d7d7d"/><path d="M6.2 3.183a3.181 3.181 0 00-3.18 3.174 3.18 3.18 0 006.36 0A3.181 3.181 0 006.2 3.182zm0 5.286a2.117 2.117 0 01-2.116-2.112 2.117 2.117 0 014.232 0c0 1.164-.95 2.112-2.116 2.112z" fill="#2d7d7d"/></svg>