<svg width="13" height="20" fill="none" xmlns="http://www.w3.org/2000/svg"><path d="M10.77 20H1.863c-.99 0-1.797-.806-1.797-1.797V1.797C.066.807.872 0 1.863 0h8.907c.99 0 1.796.806 1.796 1.797v16.406c0 .99-.806 1.797-1.796 1.797zM1.863 1.25a.547.547 0 00-.547.547v16.406c0 .302.246.547.547.547h8.907a.547.547 0 00.546-.547V1.797a.547.547 0 00-.546-.547H1.863z" fill="#2d7d7d"/><path d="M7.566 3.438h-2.5a.625.625 0 110-1.25h2.5a.625.625 0 010 1.25zM6.316 18a1 1 0 100-2 1 1 0 000 2z" fill="#2d7d7d"/></svg>