<?xml version="1.0" encoding="utf-8"?>
<!-- Generator: Adobe Illustrator 24.2.1, SVG Export Plug-In . SVG Version: 6.00 Build 0)  -->
<svg version="1.1" id="Layer_1" xmlns="http://www.w3.org/2000/svg" xmlns:xlink="http://www.w3.org/1999/xlink" x="0px" y="0px"
	 viewBox="0 0 69.6 71.9" style="enable-background:new 0 0 69.6 71.9;" xml:space="preserve">
<style type="text/css">
	.st0{fill-rule:evenodd;clip-rule:evenodd;fill:#4D7B7C;}
	.st1{fill-rule:evenodd;clip-rule:evenodd;fill:#302F2F;}
	.st2{fill:#4D7B7C;}
</style>
<g>
	<polygon class="st0" points="59.9,15.3 68.2,15.3 68.2,1.8 59.9,1.8 59.9,15.3 	"/>
	<path class="st1" d="M68.4,0h-9.3c-0.3,0-0.6,0.1-0.8,0.3C58.1,0.6,58,0.9,58,1.2v1.2H33.8c-1,0-2.1,0.3-3,0.8L19.4,9.3H5.8
		c-2,0-3.5,2-3.5,4.6c0,2.4,1.3,4.4,3.1,4.6L0.2,36.2c0,0,0,0,0,0C0.1,36.7,0,37.2,0,37.7v33.1c0,0.3,0.1,0.6,0.3,0.8
		c0.2,0.2,0.5,0.3,0.8,0.3h52.2c0.3,0,0.6-0.1,0.8-0.3c0.2-0.2,0.3-0.5,0.3-0.8v-33c0-0.6-0.1-1.1-0.2-1.6l-4.8-16.4
		c1.6,0,3.1-0.6,4.2-1.7c1.2-1.1,1.9-2.5,2-4.1H58v2.3c0,0.3,0.1,0.6,0.3,0.8c0.2,0.2,0.5,0.3,0.8,0.3h9.3c0.3,0,0.6-0.1,0.8-0.3
		c0.2-0.2,0.3-0.5,0.3-0.8V1.2c0-0.3-0.1-0.6-0.3-0.8C69.1,0.1,68.8,0,68.4,0L68.4,0z M4.6,13.9c0-1.4,0.7-2.3,1.2-2.3H39l-4.6,4.6
		H5.8C5.3,16.2,4.6,15.3,4.6,13.9L4.6,13.9z M40.8,36.3c-0.1,0.5-0.2,0.9-0.2,1.4v31.9H2.3V37.7c0-0.3,0-0.6,0.1-0.8l5.4-18.3h24.4
		c-0.6,1-0.8,2.2-0.6,3.4c0.2,1.2,0.8,2.2,1.7,3c0.9,0.8,2,1.2,3.2,1.3c1.2,0,2.4-0.3,3.3-1.1l5.6-4.3L40.8,36.3
		C40.8,36.3,40.8,36.3,40.8,36.3L40.8,36.3z M47.6,66.6l3,3h-6L47.6,66.6L47.6,66.6z M52.1,36.8c0.1,0.3,0.1,0.6,0.1,1V68l-3.5-3.5
		v-25c0-0.3-0.1-0.6-0.3-0.8c-0.2-0.2-0.5-0.3-0.8-0.3c-0.3,0-0.6,0.1-0.8,0.3c-0.2,0.2-0.3,0.5-0.3,0.8v25L42.9,68V37.7
		c0-0.3,0-0.6,0.1-0.8l4.5-15.4L52.1,36.8L52.1,36.8z M58,11.6h-2.8c-0.5,0-1,0.2-1.3,0.5c-0.3,0.3-0.5,0.8-0.5,1.3
		c0,1-0.4,2.1-1.2,2.8c-0.7,0.7-1.7,1.2-2.8,1.2h-2.9c-0.4,0-0.7,0.1-1,0.3l-7.2,5.6c-0.6,0.4-1.3,0.6-2,0.6
		c-0.7-0.1-1.4-0.4-1.8-0.9c-0.5-0.5-0.7-1.2-0.7-1.9c0-0.7,0.3-1.4,0.8-1.9l7.9-7.9c0.2-0.2,0.3-0.4,0.3-0.6c0-0.2,0-0.5-0.1-0.7
		c-0.1-0.2-0.2-0.4-0.4-0.5c-0.2-0.1-0.4-0.2-0.6-0.2H24.3l7.6-4.2c0.6-0.3,1.2-0.5,1.9-0.5H58V11.6L58,11.6z M67.3,15.1h-7V2.3h7
		V15.1L67.3,15.1z"/>
	<path class="st2" d="M13.8,37.7c-0.4,0-0.8,0.3-0.8,0.8l0,6.1l-4.9-6.4c-0.2-0.3-0.4-0.5-0.8-0.5c-0.4,0-0.8,0.3-0.8,0.8v8.5
		c0,0.5,0.3,0.8,0.8,0.8c0.4,0,0.8-0.3,0.8-0.8v-6.2l4.9,6.5c0.2,0.3,0.4,0.4,0.7,0.4c0.4,0,0.8-0.3,0.8-0.8v-8.5
		C14.6,38,14.3,37.7,13.8,37.7L13.8,37.7z M21.6,37.7c-2.8,0-5.1,2.2-5.1,5c0,2.8,2.2,5,5.1,5c2.8,0,5.1-2.2,5.1-5
		C26.7,39.9,24.4,37.7,21.6,37.7L21.6,37.7z M21.6,39.1c2,0,3.5,1.5,3.5,3.6c0,2.1-1.5,3.6-3.5,3.6c-2,0-3.5-1.5-3.5-3.6
		C18.1,40.6,19.6,39.1,21.6,39.1L21.6,39.1z M36.2,46.5l-3.5-8.3c-0.1-0.4-0.4-0.5-0.7-0.5c-0.3,0-0.6,0.2-0.7,0.5l-3.5,8.3
		c-0.1,0.2-0.1,0.3-0.1,0.4c0,0.4,0.3,0.7,0.8,0.7c0.4,0,0.6-0.2,0.7-0.5l0.6-1.4h4.6l0.6,1.4c0.1,0.4,0.4,0.5,0.7,0.5
		c0.4,0,0.8-0.3,0.8-0.7C36.3,46.8,36.2,46.7,36.2,46.5L36.2,46.5z M31.9,40l1.7,4.5h-3.5L31.9,40L31.9,40z"/>
</g>
</svg>
